# xmcd
#
# Track frame offsets:
#	150
#	13187
#	30344
#	45524
#	64941
#	78872
#	93637
#	111000
#	127780
#	144642
#	161616
#	178553
#	193409
#	208266
#	222362
#	227364
#	240371
#	259153
#	262892
#	266512
#	270224
#	273887
#	276739
#	280530
#	284671
#
# Disc length: 3833 seconds
#
# Revision: 0
# Processed by: cddbd v1.4PL0 Copyright (c) Steve Scherf et al.
# Submitted via: audiograbber 1.80
#
DISCID=6b0ef719
DTITLE=CDX - Volume 314 March 2003
DYEAR=1900
DGENRE=
TTITLE0=Ricky Skaggs - A Simple Life
TTITLE1=Brad Paisley - Celebrity
TTITLE2=Charlie Pride - Comfort Of Her Wings
TTITLE3=Chalee Tennison - Easy Lovin' You
TTITLE4=McHayes - It Doesn't Mean I Don't Love You
TTITLE5=Aaron Lines - Love Changes Everything
TTITLE6=Dusty Drake - One Last Time
TTITLE7=Vince Gill - Someday
TTITLE8=Jennifer Hanson - This Far Gone
TTITLE9=Billy Currington - Walk A Little Straighter
TTITLE10=King Country - 1973 Buick Skylark
TTITLE11=RanCie - Blue, Blue Tears
TTITLE12=Shelley Laine - My Baby (Single Version)
TTITLE13=The Derailers - Genuine
TTITLE14=The Derailers - On The Record
TTITLE15=Pat Garrett - The Saddam Stomp
TTITLE16=Shirley Myers - What Our Flag Stands For
TTITLE17=Ron White - Truth In Advertising
TTITLE18=Ron White - Topless Bar
TTITLE19=Larry The Cable Guy - Pet Smart
TTITLE20=Larry The Cable Guy - Doctor Visit
TTITLE21=Bill Envall - Skimpy Underwear
TTITLE22=Bill Envall - 20 Years Of Marriage
TTITLE23=Jeff Foxworthy - Redneck Words
TTITLE24=Jeff Foxworthy - NASCAR
EXTD=
EXTT0=
EXTT1=
EXTT2=
EXTT3=
EXTT4=
EXTT5=
EXTT6=
EXTT7=
EXTT8=
EXTT9=
EXTT10=
EXTT11=
EXTT12=
EXTT13=
EXTT14=
EXTT15=
EXTT16=
EXTT17=
EXTT18=
EXTT19=
EXTT20=
EXTT21=
EXTT22=
EXTT23=
EXTT24=
PLAYORDER=
